<svg baseProfile="full" height="28" version="1.1" viewBox="0 0 196 28" width="196" xmlns="http://www.w3.org/2000/svg" xmlns:ev="http://www.w3.org/2001/xml-events" xmlns:xlink="http://www.w3.org/1999/xlink"><defs /><g><path d="M1.039787798408488 24.9920424403183 3.0822281167108754 20.46153846153846Q4.753315649867374 21.687002652519894 7.0557029177718835 22.42970822281167Q9.358090185676392 23.172413793103445 11.660477453580901 23.172413793103445Q14.222811671087532 23.172413793103445 15.448275862068964 22.411140583554374Q16.6737400530504 21.649867374005304 16.6737400530504 20.387267904509283Q16.6737400530504 19.45888594164456 15.949602122015914 18.846153846153843Q15.225464190981432 18.233421750663126 14.092838196286472 17.86206896551724Q12.960212201591512 17.49071618037135 11.02917771883289 17.045092838196283Q8.058355437665782 16.339522546419097 6.164456233421751 15.633952254641908Q4.270557029177719 14.92838196286472 2.9151193633952257 13.368700265251988Q1.5596816976127321 11.809018567639257 1.5596816976127321 9.209549071618035Q1.5596816976127321 6.944297082228115 2.7851458885941645 5.106100795755967Q4.010610079575597 3.26790450928382 6.480106100795755 2.1909814323607417Q8.949602122015914 1.1140583554376633 12.514588859416445 1.1140583554376633Q15.002652519893898 1.1140583554376633 17.379310344827584 1.7082228116710851Q19.75596816976127 2.302387267904507 21.538461538461537 3.416445623342174L19.681697612732094 7.984084880636605Q16.079575596816976 5.941644562334215 12.477453580901857 5.941644562334215Q9.952254641909814 5.941644562334215 8.745358090185675 6.758620689655171Q7.538461538461538 7.575596816976127 7.538461538461538 8.912466843501324Q7.538461538461538 10.249336870026525 8.93103448275862 10.899204244031829Q10.323607427055702 11.549071618037132 13.183023872679044 12.180371352785144Q16.153846153846153 12.885941644562333 18.047745358090186 13.591511936339522Q19.94164456233422 14.29708222811671 21.29708222811671 15.819628647214852Q22.652519893899203 17.342175066312997 22.652519893899203 19.941644562334215Q22.652519893899203 22.16976127320955 21.408488063660478 24.007957559681696Q20.16445623342175 25.846153846153843 17.676392572944295 26.92307692307692Q15.188328912466844 27.999999999999996 11.623342175066313 27.999999999999996Q8.541114058355438 27.999999999999996 5.663129973474801 27.164456233421745Q2.7851458885941645 26.328912466843498 1.039787798408488 24.9920424403183Z M46.790450928381965 16.116710875331563V27.554376657824932H40.9973474801061V17.007957559681696Q40.9973474801061 14.631299734748008 39.95755968169762 13.46153846153846Q38.91777188328913 12.291777188328911 36.94960212201592 12.291777188328911Q34.758620689655174 12.291777188328911 33.45888594164457 13.647214854111404Q32.15915119363395 15.002652519893898 32.15915119363395 17.676392572944295V27.554376657824932H26.36604774535809V0.0H32.15915119363395V9.655172413793103Q33.310344827586206 8.503978779840846 34.94429708222812 7.891246684350131Q36.57824933687003 7.278514588859416 38.50928381962865 7.278514588859416Q42.222811671087534 7.278514588859416 44.50663129973475 9.506631299734746Q46.790450928381965 11.734748010610078 46.790450928381965 16.116710875331563Z M67.10344827586206 21.278514588859416 70.18567639257294 24.620689655172413Q67.36339522546419 27.851458885941643 61.94164456233422 27.851458885941643Q58.56233421750663 27.851458885941643 55.96286472148542 26.53315649867374Q53.363395225464195 25.214854111405835 51.95225464190982 22.875331564986737Q50.54111405835544 20.535809018567637 50.54111405835544 17.56498673740053Q50.54111405835544 14.631299734748008 51.93368700265252 12.273209549071616Q53.326259946949605 9.915119363395224 55.758620689655174 8.59681697612732Q58.19098143236074 7.278514588859416 61.23607427055703 7.278514588859416Q64.09549071618038 7.278514588859416 66.43501326259948 8.485411140583553Q68.77453580901857 9.69230769230769 70.16710875331566 11.976127320954905Q71.55968169761273 14.25994694960212 71.55968169761273 17.379310344827587L56.779840848806366 20.238726790450926Q57.41114058355438 21.72413793103448 58.766578249336874 22.46684350132626Q60.12201591511936 23.209549071618035 62.09018567639257 23.209549071618035Q63.64986737400531 23.209549071618035 64.85676392572944 22.745358090185675Q66.06366047745358 22.281167108753316 67.10344827586206 21.278514588859416ZM56.222811671087534 16.97082228116711 65.95225464190982 15.076923076923075Q65.54376657824935 13.517241379310343 64.28116710875332 12.588859416445622Q63.0185676392573 11.660477453580901 61.23607427055703 11.660477453580901Q59.04509283819629 11.660477453580901 57.6710875331565 13.071618037135277Q56.297082228116714 14.482758620689653 56.222811671087534 16.97082228116711Z M94.80636604774534 8.838196286472147Q91.46419098143235 6.907161803713528 87.6392572944297 6.350132625994693V27.554376657824932H81.62334217506631V6.350132625994693Q77.79840848806366 6.907161803713528 74.41909814323607 8.838196286472147L72.37665782493369 4.344827586206897Q75.05039787798408 2.748010610079575 78.16976127320955 1.9310344827586192Q81.28912466843501 1.1140583554376633 84.59416445623341 1.1140583554376633Q87.9363395225464 1.1140583554376633 91.07427055702917 1.9310344827586192Q94.21220159151193 2.748010610079575 96.84880636604774 4.344827586206897Z M111.55437665782493 7.278514588859416V12.62599469496021Q110.58885941644562 12.551724137931034 110.25464190981432 12.551724137931034Q107.76657824933686 12.551724137931034 106.35543766578249 13.944297082228115Q104.9442970822281 15.336870026525197 104.9442970822281 18.122015915119363V27.554376657824932H99.15119363395225V7.575596816976127H104.684350132626V10.212201591511935Q105.72413793103448 8.76392572944297 107.48806366047745 8.021220159151193Q109.25198938992042 7.278514588859416 111.55437665782493 7.278514588859416Z M135.43236074270555 7.575596816976127V27.554376657824932H129.89920424403184V25.25198938992042Q127.74535809018568 27.851458885941643 123.6604774535809 27.851458885941643Q120.83819628647214 27.851458885941643 118.55437665782492 26.588859416445622Q116.27055702917771 25.3262599469496 114.9708222811671 22.9867374005305Q113.6710875331565 20.647214854111404 113.6710875331565 17.56498673740053Q113.6710875331565 14.482758620689653 114.9708222811671 12.143236074270554Q116.27055702917771 9.803713527851457 118.55437665782492 8.541114058355436Q120.83819628647214 7.278514588859416 123.6604774535809 7.278514588859416Q127.48541114058355 7.278514588859416 129.6392572944297 9.69230769230769V7.575596816976127ZM129.75066312997347 17.56498673740053Q129.75066312997347 15.039787798408486 128.30238726790452 13.535809018567637Q126.85411140583554 12.031830238726789 124.6631299734748 12.031830238726789Q122.43501326259947 12.031830238726789 120.9867374005305 13.535809018567637Q119.53846153846153 15.039787798408486 119.53846153846153 17.56498673740053Q119.53846153846153 20.090185676392572 120.9867374005305 21.594164456233422Q122.43501326259947 23.098143236074268 124.6631299734748 23.098143236074268Q126.85411140583554 23.098143236074268 128.30238726790452 21.594164456233422Q129.75066312997347 20.090185676392572 129.75066312997347 17.56498673740053Z M160.6100795755968 7.575596816976127 152.18037135278513 27.554376657824932H146.20159151193633L137.80901856763924 7.575596816976127H143.78779840848807L149.3209549071618 21.16710875331565L155.0397877984085 7.575596816976127Z M178.06366047745357 21.278514588859416 181.14588859416443 24.620689655172413Q178.3236074270557 27.851458885941643 172.9018567639257 27.851458885941643Q169.52254641909812 27.851458885941643 166.9230769230769 26.53315649867374Q164.3236074270557 25.214854111405835 162.9124668435013 22.875331564986737Q161.50132625994692 20.535809018567637 161.50132625994692 17.56498673740053Q161.50132625994692 14.631299734748008 162.893899204244 12.273209549071616Q164.2864721485411 9.915119363395224 166.71883289124668 8.59681697612732Q169.15119363395223 7.278514588859416 172.19628647214853 7.278514588859416Q175.05570291777187 7.278514588859416 177.39522546419096 8.485411140583553Q179.73474801061008 9.69230769230769 181.12732095490713 11.976127320954905Q182.51989389920422 14.25994694960212 182.51989389920422 17.379310344827587L167.74005305039788 20.238726790450926Q168.37135278514586 21.72413793103448 169.72679045092838 22.46684350132626Q171.08222811671087 23.209549071618035 173.05039787798407 23.209549071618035Q174.6100795755968 23.209549071618035 175.81697612732094 22.745358090185675Q177.02387267904507 22.281167108753316 178.06366047745357 21.278514588859416ZM167.18302387267903 16.97082228116711 176.9124668435013 15.076923076923075Q176.50397877984085 13.517241379310343 175.24137931034483 12.588859416445622Q173.9787798408488 11.660477453580901 172.19628647214853 11.660477453580901Q170.00530503978777 11.660477453580901 168.63129973474798 13.071618037135277Q167.2572944297082 14.482758620689653 167.18302387267903 16.97082228116711Z M186.41909814323608 20.944297082228115V0.0H192.21220159151193V20.610079575596814Q192.21220159151193 21.872679045092838 192.86206896551724 22.55968169761273Q193.51193633952255 23.246684350132625 194.70026525198938 23.246684350132625Q195.14588859416446 23.246684350132625 195.6100795755968 23.135278514588858Q196.07427055702917 23.02387267904509 196.3342175066313 22.875331564986737L196.59416445623341 27.368700265251988Q195.14588859416446 27.851458885941643 193.58620689655172 27.851458885941643Q190.20689655172413 27.851458885941643 188.31299734748012 26.050397877984082Q186.41909814323608 24.249336870026525 186.41909814323608 20.944297082228115Z " fill="rgb(0,0,0)" transform="translate(-1.039787798408488, 0)" /></g></svg>