<svg width="371" height="101" viewBox="0 0 371 101" fill="none" xmlns="http://www.w3.org/2000/svg">
<path d="M3.43556 9.53783C7.10311 10.5058 7.69511 14.6822 9.128 16.6328C11.0302 19.2233 12.8169 18.8842 14.8027 21.4802C18.0116 25.6767 17.1351 31.9393 17.1351 33.7727M31.2222 23H29.4444C27.5585 23 25.7497 23.7726 24.4161 25.1479C23.0825 26.5232 22.3333 28.3884 22.3333 30.3333V32.1667M10.9324 2.81867C10.9324 4.32567 11.1316 6.27633 13.6258 7.54867C16.1182 8.81917 18.8133 8.19217 18.8133 11.8277C18.8133 12.3337 18.8133 15.509 22.3191 15.509C25.9209 15.5658 25.9209 12.4327 25.9209 11.8277C25.9209 10.636 26.8578 10.1777 28.0133 10.1777H31.2222M33 17.5C33 19.6668 32.5861 21.8124 31.7821 23.8143C30.978 25.8161 29.7994 27.6351 28.3137 29.1673C26.828 30.6994 25.0641 31.9148 23.1229 32.744C21.1817 33.5732 19.1012 34 17 34C14.8989 34 12.8183 33.5732 10.8771 32.744C8.93586 31.9148 7.17203 30.6994 5.68629 29.1673C4.20055 27.6351 3.022 25.8161 2.21793 23.8143C1.41385 21.8124 1 19.6668 1 17.5C1 13.1239 2.68571 8.92709 5.68629 5.83274C8.68687 2.73839 12.7565 1 17 1C21.2435 1 25.3131 2.73839 28.3137 5.83274C31.3143 8.92709 33 13.1239 33 17.5Z" stroke="#F8BBD0" stroke-width="2" stroke-linecap="round"/>
<path d="M3.432 54.496C3.432 49.8453 5.01067 46.0267 8.168 43.04C11.368 40.0533 15.1013 38.56 19.368 38.56C22.3973 38.56 25.2773 39.328 28.008 40.864C28.264 39.584 28.712 38.688 29.352 38.176C30.1627 37.7493 31.1867 37.536 32.424 37.536C34.3867 37.536 35.752 37.92 36.52 38.688C36.776 39.456 36.904 40.9493 36.904 43.168C36.904 48.8853 36.0293 51.936 34.28 52.32C33.5547 52.5333 32.8507 52.64 32.168 52.64C30.5893 52.64 29.3307 52.32 28.392 51.68C28.136 51.04 28.008 50.336 28.008 49.568C26.5573 48.3733 24.936 47.776 23.144 47.776C21.3093 47.776 19.688 48.416 18.28 49.696C16.872 50.976 16.168 52.384 16.168 53.92C16.168 56.4373 18.024 57.696 21.736 57.696C22.12 57.696 23.1653 57.6747 24.872 57.632C26.6213 57.5893 27.688 57.568 28.072 57.568C30.8453 57.568 33.1707 58.3573 35.048 59.936C36.9253 61.5147 37.864 64.16 37.864 67.872C37.864 72.7787 36.2 76.8107 32.872 79.968C29.544 83.0827 25.2987 84.64 20.136 84.64C17.1493 84.64 14.568 83.8507 12.392 82.272C12.392 83.3387 12.1787 84.128 11.752 84.64C10.984 85.0667 9.72533 85.28 7.976 85.28C6.09867 85.28 4.81867 84.96 4.136 84.32C3.88 82.7413 3.752 81.2053 3.752 79.712C3.752 75.744 4.66933 72.16 6.504 68.96C7.272 68.6613 8.06133 68.512 8.872 68.512C10.4507 68.512 11.6027 68.8747 12.328 69.6C12.5413 70.1547 12.6907 70.9653 12.776 72.032C14.0133 73.4827 15.7413 74.208 17.96 74.208C20.2213 74.208 22.0133 73.7813 23.336 72.928C24.6587 72.0747 25.32 70.9653 25.32 69.6C25.32 68.832 25.1067 68.2133 24.68 67.744C24.296 67.232 23.6773 66.8693 22.824 66.656C21.9707 66.4 21.2453 66.2507 20.648 66.208C20.0933 66.1227 19.304 66.0587 18.28 66.016C17.2133 65.9733 16.36 65.9307 15.72 65.888C15.08 65.8027 14.1627 65.6533 12.968 65.44C11.816 65.2267 10.856 64.9707 10.088 64.672C9.36267 64.3733 8.53067 63.9467 7.592 63.392C6.65333 62.7947 5.90667 62.1333 5.352 61.408C4.84 60.64 4.392 59.6587 4.008 58.464C3.624 57.2693 3.432 55.9467 3.432 54.496ZM39.299 42.784C39.299 39.584 39.8963 37.7067 41.091 37.152C42.5417 36.2987 45.1443 35.872 48.899 35.872C50.8617 35.872 53.1017 36.1493 55.619 36.704C56.5577 38.112 57.027 41.824 57.027 47.84C57.027 52.2347 56.8137 55.1147 56.387 56.48C60.9523 53.0667 65.1763 51.36 69.059 51.36C72.4297 51.36 75.139 52.5547 77.187 54.944C79.235 57.3333 80.259 60.9813 80.259 65.888C80.259 66.6987 80.1097 69.0453 79.811 72.928C79.811 72.8427 80.003 72.8 80.387 72.8C81.027 72.8 82.0297 72.9067 83.395 73.12C83.779 73.5467 83.971 74.9333 83.971 77.28C83.971 80.224 83.7577 82.0373 83.331 82.72C80.131 83.5733 77.2083 84 74.563 84C71.619 84 69.059 83.616 66.883 82.848C66.5843 82.6347 66.2643 81.888 65.923 80.608C65.5817 79.2853 65.411 78.1547 65.411 77.216C65.411 75.808 65.795 74.592 66.563 73.568C67.0323 73.2693 67.6297 73.12 68.355 73.12C68.5683 73.12 68.7177 73.1413 68.803 73.184C68.8883 73.2267 68.9737 73.2907 69.059 73.376C69.187 73.4187 69.315 73.4613 69.443 73.504C69.699 72.224 69.827 71.0507 69.827 69.984C69.827 67.5093 69.251 65.6107 68.099 64.288C66.947 62.9653 65.539 62.304 63.875 62.304C62.083 62.304 60.5043 63.072 59.139 64.608C57.8163 66.1013 57.155 68.1493 57.155 70.752C57.155 71.8187 57.283 72.9493 57.539 74.144C58.051 73.8453 58.7123 73.696 59.523 73.696C60.291 73.696 60.7603 73.8027 60.931 74.016C61.3577 74.016 61.571 74.8693 61.571 76.576C61.571 76.96 61.3577 78.7093 60.931 81.824C57.731 83.2747 53.9763 84 49.667 84C44.9737 84 42.2003 83.4027 41.347 82.208C40.963 81.696 40.771 80.992 40.771 80.096C40.771 77.024 41.347 75.1893 42.499 74.592C43.011 74.208 43.8003 74.016 44.867 74.016C45.0803 74.016 45.4003 74.0587 45.827 74.144C45.3577 71.2 45.123 65.4187 45.123 56.8C45.123 51.0827 45.2723 47.456 45.571 45.92C44.8883 46.1333 43.8643 46.24 42.499 46.24C41.5603 46.24 40.6857 46.1547 39.875 45.984C39.491 45.5573 39.299 44.4907 39.299 42.784ZM86.347 69.792C86.347 67.7867 86.731 65.7387 87.499 63.648C88.3097 61.5573 89.4617 59.5947 90.955 57.76C92.491 55.8827 94.539 54.3467 97.099 53.152C99.7017 51.9573 102.603 51.36 105.803 51.36C109.344 51.36 112.096 52.0853 114.059 53.536C116.064 54.944 117.067 56.9707 117.067 59.616C117.067 63.2 115.403 66.1227 112.075 68.384C108.79 70.6027 105.099 71.712 101.003 71.712C99.8937 71.712 98.763 71.6053 97.611 71.392C97.6963 74.5067 100.299 76.064 105.419 76.064C106.315 76.064 107.083 76 107.723 75.872C107.723 75.5307 107.787 75.168 107.915 74.784C109.792 73.248 111.819 72.48 113.995 72.48C114.422 72.48 114.742 72.5013 114.955 72.544C117.771 74.08 119.499 76.5973 120.139 80.096C120.096 80.4373 119.926 80.8 119.627 81.184C119.371 81.568 119.094 81.9093 118.795 82.208C118.496 82.464 118.07 82.784 117.515 83.168C116.96 83.5093 116.512 83.7653 116.171 83.936C115.872 84.1067 115.403 84.3627 114.763 84.704C114.166 85.0453 113.824 85.2373 113.739 85.28C113.483 85.28 113.27 85.2373 113.099 85.152C112.928 85.1093 112.758 85.0027 112.587 84.832C112.459 84.704 112.374 84.5973 112.331 84.512C112.288 84.4693 112.203 84.2987 112.075 84C111.947 83.744 111.862 83.5947 111.819 83.552C109.43 84.448 106.976 84.896 104.459 84.896C98.7417 84.896 94.283 83.424 91.083 80.48C87.9257 77.536 86.347 73.9733 86.347 69.792ZM98.827 63.136C98.827 64.544 99.851 65.248 101.899 65.248C103.435 65.248 104.907 64.8853 106.315 64.16C107.723 63.4347 108.427 62.5387 108.427 61.472C108.427 60.7467 108.171 60 107.659 59.232C107.19 58.4213 106.422 58.016 105.355 58.016C104.032 58.016 102.603 58.5493 101.067 59.616C99.5737 60.6827 98.827 61.856 98.827 63.136ZM118.826 49.312C118.826 44.8747 119.125 41.76 119.722 39.968C120.447 39.9253 122.218 39.84 125.034 39.712C127.85 39.5413 130.623 39.4133 133.354 39.328C136.127 39.2427 138.901 39.2 141.674 39.2C144.447 39.2 147.221 39.2427 149.994 39.328C152.81 39.4133 155.711 39.52 158.698 39.648C161.727 39.776 163.562 39.8827 164.202 39.968C164.799 41.76 165.098 44.8747 165.098 49.312C165.098 51.2747 164.949 52.832 164.65 53.984C162.517 54.4107 160.789 54.624 159.466 54.624C157.589 54.624 156.01 54.2613 154.73 53.536L153.642 49.568C153.045 49.184 151.167 48.9493 148.01 48.864C148.266 54.3253 148.394 59.2533 148.394 63.648C148.394 68.256 148.159 71.7973 147.69 74.272C147.903 74.272 148.394 74.336 149.162 74.464C150.271 74.6347 151.018 74.8267 151.402 75.04C151.658 75.296 151.786 76.448 151.786 78.496C151.786 80.7147 151.658 81.9733 151.402 82.272C150.591 83.424 147.477 84 142.058 84C136.511 84 133.333 83.424 132.522 82.272C132.266 81.9733 132.138 80.7147 132.138 78.496C132.138 76.448 132.266 75.296 132.522 75.04C132.906 74.8267 133.653 74.6347 134.762 74.464C135.53 74.336 136.021 74.272 136.234 74.272C135.765 71.7973 135.53 68.256 135.53 63.648C135.53 59.2533 135.658 54.3253 135.914 48.864C132.757 48.9493 130.879 49.184 130.282 49.568L129.194 53.536C127.914 54.2613 126.335 54.624 124.458 54.624C123.135 54.624 121.407 54.4107 119.274 53.984C118.975 52.832 118.826 51.2747 118.826 49.312ZM167.799 55.904C167.799 53.8987 167.885 52.704 168.056 52.32C169.592 51.552 172.664 51.168 177.272 51.168C179.106 51.168 180.493 51.296 181.432 51.552C182.37 51.7653 183.266 52.2347 184.12 52.96C184.077 53.6853 184.056 54.7733 184.056 56.224L184.248 55.712C184.418 55.3707 184.674 54.9653 185.016 54.496C185.4 53.984 185.848 53.4933 186.36 53.024C186.872 52.512 187.597 52.0853 188.536 51.744C189.474 51.4027 190.52 51.232 191.672 51.232C194.914 51.232 197.666 52.6187 199.928 55.392C199.032 59.4027 196.664 62.2187 192.824 63.84C191.288 62.7307 189.858 62.176 188.536 62.176C186.829 62.176 185.485 63.0293 184.503 64.736C183.565 66.4 183.096 68.4693 183.096 70.944C183.096 71.7973 183.16 72.7147 183.288 73.696C183.544 73.696 184.44 73.824 185.976 74.08L186.808 74.208C187.448 74.6773 187.768 75.808 187.768 77.6C187.768 78.88 187.576 80.16 187.192 81.44C186.808 82.72 186.296 83.6587 185.656 84.256C184.802 84.4267 182.349 84.512 178.296 84.512C176.205 84.512 174.05 84.2987 171.832 83.872C169.656 83.4027 168.44 82.9547 168.184 82.528C168.056 82.016 167.992 80.8213 167.992 78.944C167.992 75.5733 168.162 73.76 168.504 73.504C170.296 73.12 171.448 72.928 171.96 72.928C172.386 72.928 172.749 72.992 173.048 73.12C172.664 72.5227 172.472 69.4293 172.472 63.84C172.472 61.92 172.536 60.832 172.664 60.576C172.152 60.6613 171.682 60.704 171.256 60.704C169.72 60.704 168.653 60.32 168.056 59.552C167.885 59.168 167.799 57.952 167.799 55.904ZM200.602 70.688C200.602 67.5733 201.05 64.5867 201.946 61.728C202.884 58.8267 204.378 56.352 206.426 54.304C208.516 52.256 210.97 51.232 213.786 51.232C214.938 51.232 215.962 51.4027 216.858 51.744C217.796 52.0853 218.522 52.512 219.034 53.024C219.588 53.4933 220.036 53.984 220.378 54.496C220.719 54.9653 220.954 55.3707 221.082 55.712L221.338 56.224C221.338 54.7733 221.316 53.6853 221.274 52.96C222.682 51.7653 225.199 51.168 228.826 51.168C230.106 51.168 231.236 51.2107 232.218 51.296C233.242 51.3813 234.01 51.488 234.522 51.616C235.034 51.744 235.439 51.872 235.738 52C236.079 52.128 236.292 52.2133 236.378 52.256L236.506 52.32C236.676 52.704 236.762 53.8987 236.762 55.904C236.762 57.952 236.676 59.168 236.506 59.552C235.908 60.32 234.842 60.704 233.306 60.704C232.879 60.704 232.41 60.6613 231.898 60.576C232.026 60.832 232.09 61.92 232.09 63.84C232.09 69.4293 231.898 72.5227 231.514 73.12C231.812 72.992 232.175 72.928 232.602 72.928C233.114 72.928 234.266 73.12 236.058 73.504C236.399 73.76 236.569 75.5733 236.569 78.944C236.569 80.8213 236.506 82.016 236.378 82.528C236.122 82.9973 235.162 83.4453 233.498 83.872C231.876 84.2987 230.148 84.512 228.314 84.512C223.194 84.512 220.335 84.4267 219.738 84.256C219.439 83.4453 219.29 82.7627 219.29 82.208C219.29 81.8667 219.354 81.6107 219.482 81.44C218.842 81.6533 217.455 82.3147 215.322 83.424C213.231 84.4907 211.652 85.024 210.586 85.024C207.3 85.024 204.804 83.6373 203.098 80.864C201.434 78.0907 200.602 74.6987 200.602 70.688ZM209.114 69.472C209.114 70.8373 209.519 72.0107 210.33 72.992C211.14 73.9733 212.207 74.464 213.53 74.464C215.279 74.464 216.879 73.696 218.33 72.16C219.823 70.624 220.57 68.8747 220.57 66.912C220.57 65.4613 220.143 64.2453 219.29 63.264C218.479 62.2827 217.391 61.792 216.026 61.792C214.746 61.792 213.551 62.2187 212.442 63.072C211.332 63.9253 210.479 65.056 209.882 66.464C209.37 67.4453 209.114 68.448 209.114 69.472ZM238.811 56.608C242.566 53.6213 248.027 51.552 255.195 50.4C255.238 50.4 255.664 51.232 256.475 52.896C257.2 54.4747 257.563 55.6693 257.563 56.48C257.563 57.2053 257.094 57.7387 256.155 58.08C255.216 58.4213 254.534 58.592 254.107 58.592C256.496 66.3147 258.48 70.8373 260.059 72.16C262.15 69.6 264.134 65.0773 266.011 58.592C265.499 58.592 264.838 58.4 264.027 58.016C263.003 57.5467 262.47 57.2053 262.427 56.992C262.427 56.0533 262.832 54.688 263.643 52.896C264.454 51.232 264.88 50.4 264.923 50.4C267.696 50.4 270.704 51.04 273.947 52.32C277.232 53.5573 279.686 54.9867 281.307 56.608L280.667 59.936C280.326 61.216 279.942 62.368 279.515 63.392C278.704 63.2213 277.808 62.9013 276.827 62.432C276.486 63.968 275.952 65.4827 275.227 66.976C274.502 68.4693 273.456 70.304 272.091 72.48C270.726 74.6133 269.915 75.9147 269.659 76.384C270.128 76.384 270.768 76.64 271.579 77.152C272.432 77.6213 273.03 78.112 273.371 78.624C273.2 79.9893 272.923 81.0133 272.539 81.696C272.198 82.336 271.451 82.8907 270.299 83.36C269.36 83.744 267.27 83.936 264.027 83.936C255.366 83.936 250.608 83.7653 249.755 83.424C247.75 81.8027 246.747 80.2027 246.747 78.624C247.046 78.1973 247.643 77.7067 248.539 77.152C249.35 76.64 249.99 76.384 250.459 76.384C250.374 76.2987 249.947 75.6373 249.179 74.4C248.454 73.1627 247.963 72.352 247.707 71.968C247.451 71.5413 247.003 70.7733 246.363 69.664C245.723 68.512 245.254 67.616 244.955 66.976C244.656 66.336 244.336 65.5893 243.995 64.736C243.654 63.8827 243.419 63.1147 243.291 62.432C242.31 62.9013 241.414 63.2213 240.603 63.392C240.219 62.4107 239.835 61.2587 239.451 59.936C239.323 59.3387 239.11 58.2293 238.811 56.608ZM282.347 69.792C282.347 67.7867 282.731 65.7387 283.499 63.648C284.31 61.5573 285.462 59.5947 286.955 57.76C288.491 55.8827 290.539 54.3467 293.099 53.152C295.702 51.9573 298.603 51.36 301.803 51.36C305.344 51.36 308.096 52.0853 310.059 53.536C312.064 54.944 313.067 56.9707 313.067 59.616C313.067 63.2 311.403 66.1227 308.075 68.384C304.79 70.6027 301.099 71.712 297.003 71.712C295.894 71.712 294.763 71.6053 293.611 71.392C293.696 74.5067 296.299 76.064 301.419 76.064C302.315 76.064 303.083 76 303.723 75.872C303.723 75.5307 303.787 75.168 303.915 74.784C305.792 73.248 307.819 72.48 309.995 72.48C310.422 72.48 310.742 72.5013 310.955 72.544C313.771 74.08 315.499 76.5973 316.139 80.096C316.096 80.4373 315.926 80.8 315.627 81.184C315.371 81.568 315.094 81.9093 314.795 82.208C314.496 82.464 314.07 82.784 313.515 83.168C312.96 83.5093 312.512 83.7653 312.171 83.936C311.872 84.1067 311.403 84.3627 310.763 84.704C310.166 85.0453 309.824 85.2373 309.739 85.28C309.483 85.28 309.27 85.2373 309.099 85.152C308.928 85.1093 308.758 85.0027 308.587 84.832C308.459 84.704 308.374 84.5973 308.331 84.512C308.288 84.4693 308.203 84.2987 308.075 84C307.947 83.744 307.862 83.5947 307.819 83.552C305.43 84.448 302.976 84.896 300.459 84.896C294.742 84.896 290.283 83.424 287.083 80.48C283.926 77.536 282.347 73.9733 282.347 69.792ZM294.827 63.136C294.827 64.544 295.851 65.248 297.899 65.248C299.435 65.248 300.907 64.8853 302.315 64.16C303.723 63.4347 304.427 62.5387 304.427 61.472C304.427 60.7467 304.171 60 303.659 59.232C303.19 58.4213 302.422 58.016 301.355 58.016C300.032 58.016 298.603 58.5493 297.067 59.616C295.574 60.6827 294.827 61.856 294.827 63.136ZM317.908 78.496C317.908 76.448 318.036 75.296 318.292 75.04C318.676 74.8267 319.423 74.6347 320.532 74.464C321.3 74.336 321.791 74.272 322.004 74.272C321.535 71.7973 321.3 67.6373 321.3 61.792C321.3 54.9227 321.513 48.8427 321.94 43.552C320.703 43.552 319.743 43.4667 319.06 43.296C318.975 42.4427 318.932 41.76 318.932 41.248C318.932 39.3707 319.38 37.7493 320.276 36.384C322.111 35.9573 324.543 35.744 327.572 35.744C329.876 35.744 331.625 35.9573 332.82 36.384C333.289 40.3093 333.524 44.5333 333.524 49.056C333.524 52.2133 333.375 56.6933 333.076 62.496C332.777 68.2987 332.607 72.3093 332.564 74.528C332.82 74.4853 333.183 74.464 333.652 74.464C334.761 74.464 335.785 74.6987 336.724 75.168C336.852 75.3387 336.916 75.7013 336.916 76.256C336.916 77.152 336.724 78.4747 336.34 80.224C335.999 81.9307 335.7 82.9973 335.444 83.424C334.761 83.808 332.457 84 328.532 84C322.687 84 319.273 83.424 318.292 82.272C318.036 81.9733 317.908 80.7147 317.908 78.496ZM339.149 82.08C339.192 80.8427 339.384 79.6267 339.725 78.432C340.066 77.2373 340.685 76.128 341.581 75.104C342.52 74.0373 343.629 73.504 344.909 73.504C345.976 73.504 347.128 73.7387 348.365 74.208C349.645 74.6347 350.285 75.2747 350.285 76.128C350.285 76.2987 350.242 76.5547 350.157 76.896C351.693 77.408 352.738 77.664 353.293 77.664C354.274 77.664 355.128 77.3013 355.853 76.576C356.621 75.808 357.005 74.8907 357.005 73.824C357.005 72.8 356.6 72.032 355.789 71.52C355.021 71.008 354.018 70.7307 352.781 70.688C351.586 70.6453 350.285 70.5173 348.877 70.304C347.512 70.0907 346.21 69.8133 344.973 69.472C343.778 69.088 342.776 68.2987 341.965 67.104C341.197 65.9093 340.813 64.3307 340.813 62.368C340.813 59.7227 341.538 57.5467 342.989 55.84C344.44 54.1333 346.146 52.9813 348.109 52.384C350.114 51.7867 352.354 51.488 354.829 51.488C356.706 51.488 358.797 51.68 361.101 52.064C361.528 51.296 362.018 50.8267 362.573 50.656C365.73 50.9547 367.821 52.0213 368.845 53.856C368.76 55.0933 368.546 56.3093 368.205 57.504C367.906 58.656 367.288 59.7653 366.349 60.832C365.453 61.8987 364.344 62.432 363.021 62.432C361.954 62.432 360.802 62.2187 359.565 61.792C358.328 61.3227 357.709 60.6613 357.709 59.808C357.709 59.6373 357.752 59.3813 357.837 59.04C356.813 58.6987 356.002 58.528 355.405 58.528C354.381 58.528 353.506 58.8907 352.781 59.616C352.056 60.3413 351.693 61.1307 351.693 61.984C351.693 63.008 352.29 63.7547 353.485 64.224C354.722 64.6933 356.194 65.0133 357.901 65.184C359.65 65.3547 361.4 65.6107 363.149 65.952C364.898 66.2933 366.37 67.0827 367.565 68.32C368.802 69.5147 369.421 71.2 369.421 73.376C369.421 77.0453 367.842 79.8187 364.685 81.696C361.528 83.5307 357.773 84.448 353.421 84.448C351.373 84.448 349.197 84.256 346.893 83.872C346.466 84.64 345.976 85.1093 345.421 85.28C342.264 84.9813 340.173 83.9147 339.149 82.08Z" fill="#F8BBD0"/>
</svg>
